<?xml version="1.0" standalone="no"?>
<!DOCTYPE svg PUBLIC "-//W3C//DTD SVG 20010904//EN"
 "http://www.w3.org/TR/2001/REC-SVG-20010904/DTD/svg10.dtd">
<svg version="1.0" xmlns="http://www.w3.org/2000/svg"
 width="1280.000000pt" height="988.000000pt" viewBox="0 0 1280.000000 988.000000"
 preserveAspectRatio="xMidYMid meet">

<g transform="translate(0.000000,988.000000) scale(0.100000,-0.100000)"
fill="#000000" stroke="none">
<path d="M6350 9589 c-810 -49 -1632 -355 -2280 -849 -320 -244 -621 -547
-867 -871 -627 -826 -959 -1877 -930 -2939 41 -1506 790 -2892 1997 -3695 581
-386 1176 -606 1870 -691 207 -26 716 -26 920 -1 502 62 915 181 1345 386 540
258 1062 663 1442 1119 33 39 63 86 67 103 12 62 -46 139 -106 139 -52 0 -91
-29 -173 -126 -117 -139 -380 -393 -537 -518 -605 -482 -1267 -765 -2023 -863
-197 -25 -760 -25 -949 0 -896 121 -1680 505 -2322 1137 -654 643 -1082 1477
-1238 2410 -66 394 -74 891 -20 1310 123 962 557 1853 1234 2531 665 666 1469
1054 2430 1171 141 17 641 17 785 0 619 -74 1160 -257 1662 -561 123 -74 154
-82 203 -49 45 31 62 64 56 111 -6 52 -32 77 -151 149 -720 436 -1580 648
-2415 597z"/>
<path d="M6530 8553 c-809 -22 -1596 -370 -2176 -964 -128 -130 -233 -249
-252 -286 -29 -54 -3 -131 54 -158 69 -32 108 -11 215 116 94 113 244 261 376
371 720 599 1649 818 2556 603 498 -118 987 -391 1371 -764 619 -604 967
-1443 966 -2331 -1 -762 -273 -1516 -753 -2085 -150 -178 -376 -388 -562 -522
-350 -253 -782 -435 -1204 -509 -123 -22 -343 -44 -434 -44 -43 0 -92 -6 -110
-14 -96 -40 -90 -184 9 -216 41 -14 312 1 484 26 1192 174 2197 1024 2611
2209 318 912 244 1941 -201 2791 -590 1129 -1721 1810 -2950 1777z"/>
<path d="M10546 8459 c-56 -13 -102 -52 -133 -112 l-27 -52 -9 -455 c-10 -571
-5 -947 17 -1100 69 -492 196 -767 391 -842 35 -14 41 -21 52 -64 49 -184 30
-808 -57 -1944 -53 -690 -63 -874 -64 -1150 -1 -281 -1 -286 23 -334 28 -57
111 -123 199 -158 79 -31 260 -32 338 -1 81 32 190 109 206 146 27 66 14 449
-36 1062 -90 1087 -103 1274 -112 1670 -7 286 4 492 33 620 23 104 33 119 92
134 146 37 263 199 321 443 43 187 45 224 45 1103 l0 840 -24 60 c-42 105
-112 149 -200 125 -65 -17 -115 -82 -139 -180 -6 -25 -13 -191 -17 -370 -13
-737 -17 -869 -29 -886 -19 -25 -82 -21 -112 7 l-24 23 0 625 c1 547 -1 632
-15 671 -28 79 -82 120 -160 120 -89 0 -151 -50 -182 -147 -14 -42 -16 -129
-14 -674 2 -467 0 -628 -9 -634 -19 -12 -79 -8 -96 6 -15 12 -15 74 -9 629 7
555 6 621 -9 672 -34 118 -125 173 -240 147z m98 -135 c9 -8 18 -25 21 -37 3
-12 7 -312 8 -667 l2 -645 22 -31 c57 -79 213 -98 287 -35 48 42 48 31 46 700
-1 641 1 671 38 714 8 9 26 17 39 17 52 0 53 -12 53 -703 l0 -634 34 -45 c96
-125 277 -112 347 24 17 34 19 63 20 335 1 164 4 440 7 613 7 293 8 318 28
355 40 76 83 52 103 -59 14 -74 5 -1561 -10 -1691 -21 -187 -67 -341 -127
-430 -38 -55 -106 -104 -154 -112 -58 -9 -110 -59 -137 -131 -42 -110 -52
-203 -58 -506 -8 -390 8 -700 82 -1591 65 -797 76 -951 78 -1133 l2 -183 -25
-20 c-14 -10 -52 -33 -86 -50 -52 -26 -71 -30 -141 -30 -45 0 -99 4 -120 10
-49 13 -127 63 -147 94 -39 58 -32 323 29 1162 86 1178 105 1500 105 1796 0
422 -36 571 -143 600 -159 42 -265 288 -333 774 -15 104 -17 199 -15 702 2
320 6 632 10 692 6 97 10 114 31 136 27 29 80 34 104 9z"/>
<path d="M1277 8210 c-87 -16 -190 -51 -272 -93 -118 -60 -247 -191 -303 -307
-65 -132 -76 -218 -76 -555 1 -727 158 -1485 360 -1732 19 -23 56 -52 83 -65
56 -26 65 -42 81 -138 37 -225 20 -743 -65 -1920 -51 -715 -58 -842 -59 -1100
-1 -293 3 -320 58 -379 81 -87 167 -114 340 -110 115 4 126 6 187 37 102 52
162 102 178 147 15 45 10 432 -8 630 -54 577 -126 1547 -142 1910 -23 521 13
897 88 921 59 19 83 33 126 73 101 94 174 264 236 551 113 526 129 1408 31
1700 -69 205 -236 349 -475 410 -91 23 -293 34 -368 20z m315 -135 c148 -31
291 -120 357 -224 85 -133 104 -265 105 -736 1 -422 -20 -673 -80 -975 -67
-336 -160 -527 -273 -561 -89 -27 -135 -103 -169 -282 -14 -78 -17 -152 -16
-497 0 -481 1 -488 114 -1870 37 -458 55 -791 46 -853 -7 -45 -11 -51 -67 -87
-67 -43 -130 -60 -223 -60 -117 0 -217 49 -230 113 -22 106 0 624 64 1502 56
774 63 928 64 1335 1 439 -4 503 -51 599 -22 46 -33 56 -78 76 -28 13 -64 38
-79 56 -139 165 -271 717 -317 1327 -13 181 -7 610 11 697 40 202 219 374 452
435 92 24 267 26 370 5z"/>
<path d="M1386 7779 c-31 -24 -33 -48 -7 -80 16 -19 27 -23 67 -21 156 6 289
-191 350 -519 24 -129 24 -409 1 -539 -40 -215 -103 -363 -193 -454 -46 -46
-72 -59 -131 -67 -64 -9 -85 -25 -85 -65 -1 -45 36 -67 100 -61 251 26 434
371 449 847 7 196 -6 327 -48 489 -65 253 -189 429 -338 479 -56 19 -134 15
-165 -9z"/>
</g>
</svg>
